<svg width="192" height="192" viewBox="0 0 192 192" fill="none" xmlns="http://www.w3.org/2000/svg">
  <defs>
    <linearGradient id="bgGradient" x1="0%" y1="0%" x2="100%" y2="100%">
      <stop offset="0%" style="stop-color:#667eea"/>
      <stop offset="100%" style="stop-color:#764ba2"/>
    </linearGradient>
  </defs>
  
  <!-- Background -->
  <rect width="192" height="192" rx="42" fill="url(#bgGradient)"/>
  
  <!-- Shopping Bag Icon -->
  <g transform="translate(40, 32)">
    <!-- Bag body -->
    <path d="M12 40 L12 108 C12 116 18 124 28 124 L84 124 C94 124 100 116 100 108 L100 40 Z" 
          fill="white" fill-opacity="0.95"/>
    
    <!-- Bag handles -->
    <path d="M36 40 L36 24 C36 12 44 4 56 4 C68 4 76 12 76 24 L76 40" 
          stroke="white" stroke-width="8" fill="none" stroke-linecap="round"/>
    
    <!-- Heart icon inside bag -->
    <path d="M56 60 C48 52 36 54 36 66 C36 78 56 96 56 96 C56 96 76 78 76 66 C76 54 64 52 56 60 Z" 
          fill="#e94560"/>
    
    <!-- Sparkle left -->
    <circle cx="8" cy="20" r="4" fill="white" fill-opacity="0.6"/>
    
    <!-- Sparkle right -->
    <circle cx="104" cy="60" r="3" fill="white" fill-opacity="0.5"/>
  </g>
</svg>
