<svg width="512" height="512" viewBox="0 0 512 512" fill="none" xmlns="http://www.w3.org/2000/svg">
  <defs>
    <linearGradient id="bgGradient512" x1="0%" y1="0%" x2="100%" y2="100%">
      <stop offset="0%" style="stop-color:#667eea"/>
      <stop offset="100%" style="stop-color:#764ba2"/>
    </linearGradient>
    <filter id="shadow" x="-20%" y="-20%" width="140%" height="140%">
      <feDropShadow dx="0" dy="4" stdDeviation="8" flood-opacity="0.15"/>
    </filter>
  </defs>
  
  <!-- Background -->
  <rect width="512" height="512" rx="112" fill="url(#bgGradient512)"/>
  
  <!-- Shopping Bag Icon -->
  <g transform="translate(106, 85)" filter="url(#shadow)">
    <!-- Bag body -->
    <path d="M32 106.67 L32 288 C32 309.33 48 330.67 74.67 330.67 L224 330.67 C250.67 330.67 266.67 309.33 266.67 288 L266.67 106.67 Z" 
          fill="white"/>
    
    <!-- Bag handles -->
    <path d="M96 106.67 L96 64 C96 32 117.33 10.67 149.33 10.67 C181.33 10.67 202.67 32 202.67 64 L202.67 106.67" 
          stroke="white" stroke-width="21.33" fill="none" stroke-linecap="round"/>
    
    <!-- Heart icon inside bag -->
    <path d="M149.33 160 C128 138.67 96 144 96 176 C96 208 149.33 256 149.33 256 C149.33 256 202.67 208 202.67 176 C202.67 144 170.67 138.67 149.33 160 Z" 
          fill="#e94560"/>
    
    <!-- Sparkle effects -->
    <circle cx="21.33" cy="53.33" r="10.67" fill="white" fill-opacity="0.6"/>
    <circle cx="277.33" cy="160" r="8" fill="white" fill-opacity="0.5"/>
    <circle cx="256" cy="48" r="5.33" fill="white" fill-opacity="0.4"/>
  </g>
  
  <!-- Subtle pattern -->
  <g opacity="0.05">
    <circle cx="100" cy="100" r="50" fill="white"/>
    <circle cx="420" cy="420" r="70" fill="white"/>
  </g>
</svg>
